<?xml version="1.0" encoding="UTF-8" standalone="no"?><!DOCTYPE svg PUBLIC "-//W3C//DTD SVG 1.1//EN" "http://www.w3.org/Graphics/SVG/1.1/DTD/svg11.dtd"><svg width="100%" height="100%" viewBox="0 0 646 112" version="1.1" xmlns="http://www.w3.org/2000/svg" xmlns:xlink="http://www.w3.org/1999/xlink" xml:space="preserve" xmlns:serif="http://www.serif.com/" style="fill-rule:evenodd;clip-rule:evenodd;stroke-linejoin:round;stroke-miterlimit:2;"><rect id="DKI_Webapp_monday-timetracker_Logo_light" x="0" y="0.026" width="645.645" height="111.12" style="fill:none;"/><clipPath id="_clip1"><rect x="0" y="0.026" width="645.645" height="111.12"/></clipPath><g clip-path="url(#_clip1)"><g><g><circle cx="55.588" cy="55.586" r="55.56" style="fill:#f5f4f0;"/><path d="M28.567,26.828c18.502,-17.408 52.559,-7.071 62.851,14.91c14.541,30.541 -26.468,61.341 -54.336,48.307c-10.065,-4.379 -14.749,-13.39 -17.54,-23.209c-1.451,-4.486 -2.701,-9.259 -2.808,-14.239c-0.213,-9.768 4.296,-20.201 11.833,-25.769Zm23.903,-4.425c-8.054,-0.745 -16.089,0.995 -22.338,6.212c-7.007,6.605 -9.778,15.19 -9.177,23.941c10.172,-1.16 20.431,-1.725 30.706,-1.684c0.553,-9.471 0.823,-18.966 0.809,-28.469Zm-31.072,33.798c0.529,3.052 1.453,6.093 2.735,9.048c2.846,8.489 6.816,16.039 15.39,19.289c11.984,4.98 25.89,0.574 35.763,-7.241c14.917,-11.488 17.022,-30.009 3.122,-43.266c-5.716,-5.404 -13.634,-9.44 -21.847,-11.039c0.532,10.266 0.736,20.556 0.608,30.852c0,1.513 -1.226,2.741 -2.739,2.741c-10.968,-0.815 -22.007,-0.966 -33.033,-0.383Zm18.681,10.962c0.265,3.166 0.062,7.389 -1.856,6.898c-0.368,-0.106 -0.643,-0.388 -0.758,-0.725c-0.903,-3.037 -1.056,-6.126 -0.362,-9.215c0.091,-0.405 0.354,-0.678 0.677,-0.82c0.143,-0.174 0.349,-0.291 0.571,-0.324c3.705,-0.4 7.536,0.343 10.848,2.053c0.373,0.203 0.511,0.671 0.309,1.044c-0.153,0.281 -0.459,0.428 -0.759,0.399c-2.297,-0.247 -4.691,-0.668 -6.981,-1.057c4.384,4.887 11.085,7.105 17.503,5.702c7.699,-1.129 12.955,-8.335 13.56,-15.831c0.227,-7.331 -3.632,-14.036 -9.325,-18.92c-1.023,-0.79 0.107,-2.462 1.219,-1.817c7.709,4.043 13.646,13.071 12.939,22.179c-0.953,11.655 -10.864,20.53 -22.65,19.114c-5.968,-0.325 -11.684,-3.74 -14.934,-8.68Z" style="fill:#db007a;"/></g><g><path d="M178.616,41.863l0,-15.187l-47.547,0l0,15.187l13.979,0l0,44.354l19.502,0l0,-44.354l14.066,0Z" style="fill:#f5f4f0;fill-rule:nonzero;"/><rect x="182.067" y="42.208" width="19.416" height="44.009" style="fill:#f5f4f0;fill-rule:nonzero;"/><path d="M282.167,86.217l0,-26.319c0,-11.649 -4.746,-18.553 -15.533,-18.553c-6.903,0 -10.787,2.157 -14.066,7.335c-2.33,-6.04 -7.507,-7.335 -13.116,-7.335c-5.609,0 -9.492,3.02 -11.908,6.472l0.259,-5.609l-19.416,0l0,44.009l19.416,0l0,-22.436c0,-4.315 0.863,-6.731 3.883,-6.731c3.02,0 3.883,2.416 3.883,6.731l0,22.436l19.416,0l0,-22.436c0,-4.315 0.863,-6.731 3.883,-6.731c3.02,0 3.883,2.416 3.883,6.731l0,22.436l19.416,0Z" style="fill:#f5f4f0;fill-rule:nonzero;"/><path d="M334.978,63.35c0,-13.375 -9.492,-22.005 -23.299,-22.005c-13.807,0 -25.025,7.853 -25.025,22.954c0,15.101 10.787,22.954 24.766,22.954c14.066,0 20.106,-5.782 22.263,-7.507l-7.335,-9.492c-3.883,2.589 -8.629,3.452 -12.081,3.452c-3.452,0 -7.766,-0.863 -8.457,-4.919l28.908,0c0,0 0.259,-2.848 0.259,-5.436Zm-17.949,-4.746l-11.218,0c0.259,-3.02 2.416,-5.178 5.609,-5.178c3.279,0 5.436,2.157 5.609,5.178Z" style="fill:#f5f4f0;fill-rule:nonzero;"/><path d="M379.72,41.863l0,-15.187l-47.547,0l0,15.187l13.979,0l0,44.354l19.502,0l0,-44.354l14.066,0Z" style="fill:#f5f4f0;fill-rule:nonzero;"/><path d="M413.806,42.208c0,0 -1.294,-0.863 -4.315,-0.863c-4.746,0 -8.198,1.726 -11.045,6.472l0.259,-5.609l-19.416,0l0,44.009l19.416,0l0,-17.258c0,-5.264 1.467,-10.355 7.766,-10.355c2.589,0 4.746,0.863 5.609,1.294l0.863,0l0.863,-17.69Z" style="fill:#f5f4f0;fill-rule:nonzero;"/><path d="M459.972,86.217l0,-24.162c0,-15.619 -9.665,-20.71 -23.989,-20.71c-9.061,0 -16.827,2.589 -21.142,4.574l4.746,12.254c3.02,-1.726 8.629,-3.883 13.807,-3.883c5.178,0 7.162,1.726 7.162,4.142l0,0.431l-10.183,0.431c-6.386,0.259 -17.258,2.761 -17.258,13.548c0,10.787 8.629,14.411 16.827,14.411c5.609,0 9.061,-2.761 11.218,-4.919l0.431,3.883l18.38,0Zm-19.243,-17.949l0,5.436c-0.431,0.431 -1.726,1.726 -3.883,1.726c-2.157,0 -4.315,-0.863 -4.315,-3.452c0,-2.589 2.244,-3.365 4.315,-3.452l3.883,-0.259Z" style="fill:#f5f4f0;fill-rule:nonzero;"/><path d="M504.413,83.197l-3.452,-14.67c0,0 -3.883,3.02 -9.061,3.02c-5.178,0 -8.457,-2.589 -8.457,-7.507c0,-5.005 3.711,-7.594 8.025,-7.594c4.315,0 7.766,1.726 9.492,3.02l3.02,-14.67c0,0 -5.609,-3.452 -15.533,-3.452c-12.944,0 -24.162,8.284 -24.162,22.954c0,14.67 11.218,22.954 24.162,22.954c7.162,0 12.512,-1.381 15.964,-4.056Z" style="fill:#f5f4f0;fill-rule:nonzero;"/><path d="M560.071,86.217l-15.533,-27.614l15.101,-16.396l-22.005,0l-9.32,11.649l0,-27.182l-19.416,0l0,59.542l19.416,0l0,-10.355l2.848,-3.02l6.903,13.375l22.005,0Z" style="fill:#f5f4f0;fill-rule:nonzero;"/><path d="M606.669,63.35c0,-13.375 -9.492,-22.005 -23.299,-22.005c-13.807,0 -25.025,7.853 -25.025,22.954c0,15.101 10.787,22.954 24.766,22.954c14.066,0 20.106,-5.782 22.263,-7.507l-7.335,-9.492c-3.883,2.589 -8.629,3.452 -12.081,3.452c-3.452,0 -7.766,-0.863 -8.457,-4.919l28.908,0c0,0 0.259,-2.848 0.259,-5.436Zm-17.949,-4.746l-11.218,0c0.259,-3.02 2.416,-5.178 5.609,-5.178c3.279,0 5.436,2.157 5.609,5.178Z" style="fill:#f5f4f0;fill-rule:nonzero;"/><path d="M645.674,42.208c0,0 -1.294,-0.863 -4.315,-0.863c-4.746,0 -8.198,1.726 -11.045,6.472l0.259,-5.609l-19.416,0l0,44.009l19.416,0l0,-17.258c0,-5.264 1.467,-10.355 7.766,-10.355c2.589,0 4.746,0.863 5.609,1.294l0.863,0l0.863,-17.69Z" style="fill:#f5f4f0;fill-rule:nonzero;"/><path d="M202.087,31.421c0,-5.609 -4.056,-9.233 -10.355,-9.233c-6.213,0 -10.355,3.624 -10.355,9.233c0,5.609 4.142,9.233 10.355,9.233c6.299,0 10.355,-3.624 10.355,-9.233Z" style="fill:#db007a;fill-rule:nonzero;"/></g></g></g></svg>