<?xml version="1.0" encoding="UTF-8" standalone="no"?><!DOCTYPE svg PUBLIC "-//W3C//DTD SVG 1.1//EN" "http://www.w3.org/Graphics/SVG/1.1/DTD/svg11.dtd"><svg width="100%" height="100%" viewBox="0 0 646 112" version="1.1" xmlns="http://www.w3.org/2000/svg" xmlns:xlink="http://www.w3.org/1999/xlink" xml:space="preserve" xmlns:serif="http://www.serif.com/" style="fill-rule:evenodd;clip-rule:evenodd;stroke-linejoin:round;stroke-miterlimit:2;"><rect id="DKI_Webapp_monday-timetracker_Logo_black" x="0" y="0.215" width="645.645" height="111.12" style="fill:none;"/><clipPath id="_clip1"><rect x="0" y="0.215" width="645.645" height="111.12"/></clipPath><g clip-path="url(#_clip1)"><g><g><path d="M55.588,0.215c30.664,0 55.56,24.896 55.56,55.56c0,30.664 -24.896,55.56 -55.56,55.56c-30.664,0 -55.56,-24.896 -55.56,-55.56c0,-30.664 24.896,-55.56 55.56,-55.56Zm-27.021,26.802c-7.537,5.568 -12.046,16.001 -11.833,25.769c0.107,4.98 1.357,9.753 2.808,14.239c2.791,9.819 7.475,18.83 17.54,23.209c27.868,13.034 68.877,-17.765 54.336,-48.307c-10.292,-21.981 -44.349,-32.318 -62.851,-14.91Zm-7.169,29.373c11.026,-0.583 22.065,-0.432 33.033,0.383c1.513,0 2.739,-1.227 2.739,-2.741c0.127,-10.296 -0.077,-20.586 -0.608,-30.852c8.213,1.599 16.13,5.635 21.847,11.039c13.9,13.256 11.795,31.777 -3.122,43.266c-9.872,7.815 -23.779,12.221 -35.763,7.241c-8.574,-3.25 -12.544,-10.8 -15.39,-19.289c-1.282,-2.955 -2.206,-5.996 -2.735,-9.048Zm18.681,10.962c3.25,4.94 8.966,8.354 14.934,8.68c11.786,1.416 21.697,-7.459 22.65,-19.114c0.707,-9.108 -5.23,-18.136 -12.939,-22.179c-1.111,-0.645 -2.241,1.026 -1.219,1.817c5.693,4.883 9.552,11.589 9.325,18.92c-0.605,7.496 -5.861,14.702 -13.56,15.831c-6.418,1.403 -13.118,-0.814 -17.503,-5.702c2.29,0.389 4.684,0.81 6.981,1.057c0.3,0.029 0.607,-0.118 0.759,-0.399c0.203,-0.373 0.064,-0.841 -0.309,-1.044c-3.313,-1.709 -7.144,-2.453 -10.848,-2.053c-0.223,0.033 -0.428,0.15 -0.571,0.324c-0.323,0.142 -0.586,0.415 -0.677,0.82c-0.693,3.089 -0.541,6.178 0.362,9.215c0.114,0.336 0.39,0.619 0.758,0.725c1.918,0.491 2.121,-3.732 1.856,-6.898Zm12.391,-44.76c0.014,9.503 -0.256,18.998 -0.809,28.469c-10.274,-0.041 -20.533,0.524 -30.706,1.684c-0.601,-8.752 2.17,-17.336 9.177,-23.941c6.249,-5.217 14.284,-6.958 22.338,-6.212Z"/></g><g><path d="M178.616,42.052l0,-15.187l-47.547,0l0,15.187l13.979,0l0,44.354l19.502,0l0,-44.354l14.066,0Z" style="fill-rule:nonzero;"/><rect x="182.067" y="42.397" width="19.416" height="44.009" style="fill-rule:nonzero;"/><path d="M282.167,86.406l0,-26.319c0,-11.649 -4.746,-18.553 -15.533,-18.553c-6.903,0 -10.787,2.157 -14.066,7.335c-2.33,-6.04 -7.507,-7.335 -13.116,-7.335c-5.609,0 -9.492,3.02 -11.908,6.472l0.259,-5.609l-19.416,0l0,44.009l19.416,0l0,-22.436c0,-4.315 0.863,-6.731 3.883,-6.731c3.02,0 3.883,2.416 3.883,6.731l0,22.436l19.416,0l0,-22.436c0,-4.315 0.863,-6.731 3.883,-6.731c3.02,0 3.883,2.416 3.883,6.731l0,22.436l19.416,0Z" style="fill-rule:nonzero;"/><path d="M334.978,63.539c0,-13.375 -9.492,-22.005 -23.299,-22.005c-13.807,0 -25.025,7.853 -25.025,22.954c0,15.101 10.787,22.954 24.766,22.954c14.066,0 20.106,-5.782 22.263,-7.507l-7.335,-9.492c-3.883,2.589 -8.629,3.452 -12.081,3.452c-3.452,0 -7.766,-0.863 -8.457,-4.919l28.908,0c0,0 0.259,-2.848 0.259,-5.436Zm-17.949,-4.746l-11.218,0c0.259,-3.02 2.416,-5.178 5.609,-5.178c3.279,0 5.436,2.157 5.609,5.178Z" style="fill-rule:nonzero;"/><path d="M379.72,42.052l0,-15.187l-47.547,0l0,15.187l13.979,0l0,44.354l19.502,0l0,-44.354l14.066,0Z" style="fill-rule:nonzero;"/><path d="M413.806,42.397c0,0 -1.294,-0.863 -4.315,-0.863c-4.746,0 -8.198,1.726 -11.045,6.472l0.259,-5.609l-19.416,0l0,44.009l19.416,0l0,-17.258c0,-5.264 1.467,-10.355 7.766,-10.355c2.589,0 4.746,0.863 5.609,1.294l0.863,0l0.863,-17.69Z" style="fill-rule:nonzero;"/><path d="M459.972,86.406l0,-24.162c0,-15.619 -9.665,-20.71 -23.989,-20.71c-9.061,0 -16.827,2.589 -21.142,4.574l4.746,12.254c3.02,-1.726 8.629,-3.883 13.807,-3.883c5.178,0 7.162,1.726 7.162,4.142l0,0.431l-10.183,0.431c-6.386,0.259 -17.258,2.761 -17.258,13.548c0,10.787 8.629,14.411 16.827,14.411c5.609,0 9.061,-2.761 11.218,-4.919l0.431,3.883l18.38,0Zm-19.243,-17.949l0,5.436c-0.431,0.431 -1.726,1.726 -3.883,1.726c-2.157,0 -4.315,-0.863 -4.315,-3.452c0,-2.589 2.244,-3.365 4.315,-3.452l3.883,-0.259Z" style="fill-rule:nonzero;"/><path d="M504.413,83.386l-3.452,-14.67c0,0 -3.883,3.02 -9.061,3.02c-5.178,0 -8.457,-2.589 -8.457,-7.507c0,-5.005 3.711,-7.594 8.025,-7.594c4.315,0 7.766,1.726 9.492,3.02l3.02,-14.67c0,0 -5.609,-3.452 -15.533,-3.452c-12.944,0 -24.162,8.284 -24.162,22.954c0,14.67 11.218,22.954 24.162,22.954c7.162,0 12.512,-1.381 15.964,-4.056Z" style="fill-rule:nonzero;"/><path d="M560.071,86.406l-15.533,-27.614l15.101,-16.396l-22.005,0l-9.32,11.649l0,-27.182l-19.416,0l0,59.542l19.416,0l0,-10.355l2.848,-3.02l6.903,13.375l22.005,0Z" style="fill-rule:nonzero;"/><path d="M606.669,63.539c0,-13.375 -9.492,-22.005 -23.299,-22.005c-13.807,0 -25.025,7.853 -25.025,22.954c0,15.101 10.787,22.954 24.766,22.954c14.066,0 20.106,-5.782 22.263,-7.507l-7.335,-9.492c-3.883,2.589 -8.629,3.452 -12.081,3.452c-3.452,0 -7.766,-0.863 -8.457,-4.919l28.908,0c0,0 0.259,-2.848 0.259,-5.436Zm-17.949,-4.746l-11.218,0c0.259,-3.02 2.416,-5.178 5.609,-5.178c3.279,0 5.436,2.157 5.609,5.178Z" style="fill-rule:nonzero;"/><path d="M645.674,42.397c0,0 -1.294,-0.863 -4.315,-0.863c-4.746,0 -8.198,1.726 -11.045,6.472l0.259,-5.609l-19.416,0l0,44.009l19.416,0l0,-17.258c0,-5.264 1.467,-10.355 7.766,-10.355c2.589,0 4.746,0.863 5.609,1.294l0.863,0l0.863,-17.69Z" style="fill-rule:nonzero;"/><path d="M202.087,31.611c0,-5.609 -4.056,-9.233 -10.355,-9.233c-6.213,0 -10.355,3.624 -10.355,9.233c0,5.609 4.142,9.233 10.355,9.233c6.299,0 10.355,-3.624 10.355,-9.233Z" style="fill-rule:nonzero;"/></g></g></g></svg>